<svg width="30" height="33" viewBox="0 0 30 33" fill="none" xmlns="http://www.w3.org/2000/svg">
<path d="M20.9991 3.96994C20.3089 3.66886 19.505 3.98348 19.2035 4.67265C18.902 5.36182 19.2171 6.16454 19.9072 6.46562C24.3441 8.4012 27.2726 12.7833 27.2726 17.7019C27.2726 24.47 21.7773 29.9572 14.9999 29.9572C8.22169 29.9572 2.72723 24.4705 2.72723 17.7019C2.72723 12.7844 5.65478 8.40228 10.0903 6.46543C10.7804 6.16416 11.0952 5.36131 10.7934 4.67226C10.4917 3.98322 9.68771 3.66886 8.99769 3.9702C3.57794 6.33669 0 11.6924 0 17.7018C0 25.9746 6.71554 32.6806 15 32.6806C23.2836 32.6806 30 25.9741 30 17.7018C30 11.691 26.4206 6.33503 20.9991 3.96994Z" fill="black"/>
<path d="M14.9994 14.9787C15.7525 14.9787 16.363 14.3691 16.363 13.6171V1.36174C16.363 0.609638 15.7525 0 14.9994 0C14.2462 0 13.6357 0.609638 13.6357 1.36168V13.617C13.6357 14.369 14.2462 14.9787 14.9994 14.9787Z" fill="black"/>
</svg>
