<svg width="137" height="66" viewBox="0 0 137 66" fill="none" xmlns="http://www.w3.org/2000/svg">
<path d="M19.2765 32.168C18.1565 32.168 17.1485 31.976 16.2525 31.592C15.3565 31.192 14.6525 30.632 14.1405 29.912C13.6285 29.192 13.3725 28.352 13.3725 27.392H16.3005C16.3645 28.112 16.6445 28.704 17.1405 29.168C17.6525 29.632 18.3645 29.864 19.2765 29.864C20.2205 29.864 20.9565 29.64 21.4845 29.192C22.0125 28.728 22.2765 28.136 22.2765 27.416C22.2765 26.856 22.1085 26.4 21.7725 26.048C21.4525 25.696 21.0445 25.424 20.5485 25.232C20.0685 25.04 19.3965 24.832 18.5325 24.608C17.4445 24.32 16.5565 24.032 15.8685 23.744C15.1965 23.44 14.6205 22.976 14.1405 22.352C13.6605 21.728 13.4205 20.896 13.4205 19.856C13.4205 18.896 13.6605 18.056 14.1405 17.336C14.6205 16.616 15.2925 16.064 16.1565 15.68C17.0205 15.296 18.0205 15.104 19.1565 15.104C20.7725 15.104 22.0925 15.512 23.1165 16.328C24.1565 17.128 24.7325 18.232 24.8445 19.64H21.8205C21.7725 19.032 21.4845 18.512 20.9565 18.08C20.4285 17.648 19.7325 17.432 18.8685 17.432C18.0845 17.432 17.4445 17.632 16.9485 18.032C16.4525 18.432 16.2045 19.008 16.2045 19.76C16.2045 20.272 16.3565 20.696 16.6605 21.032C16.9805 21.352 17.3805 21.608 17.8605 21.8C18.3405 21.992 18.9965 22.2 19.8285 22.424C20.9325 22.728 21.8285 23.032 22.5165 23.336C23.2205 23.64 23.8125 24.112 24.2925 24.752C24.7885 25.376 25.0365 26.216 25.0365 27.272C25.0365 28.12 24.8045 28.92 24.3405 29.672C23.8925 30.424 23.2285 31.032 22.3485 31.496C21.4845 31.944 20.4605 32.168 19.2765 32.168ZM29.6568 17.024C29.1608 17.024 28.7448 16.856 28.4088 16.52C28.0728 16.184 27.9048 15.768 27.9048 15.272C27.9048 14.776 28.0728 14.36 28.4088 14.024C28.7448 13.688 29.1608 13.52 29.6568 13.52C30.1368 13.52 30.5448 13.688 30.8808 14.024C31.2168 14.36 31.3848 14.776 31.3848 15.272C31.3848 15.768 31.2168 16.184 30.8808 16.52C30.5448 16.856 30.1368 17.024 29.6568 17.024ZM31.0008 18.776V32H28.2648V18.776H31.0008ZM37.329 14.24V32H34.593V14.24H37.329ZM46.6571 32.216C45.4091 32.216 44.2811 31.936 43.2731 31.376C42.2651 30.8 41.4731 30 40.8971 28.976C40.3211 27.936 40.0331 26.736 40.0331 25.376C40.0331 24.032 40.3291 22.84 40.9211 21.8C41.5131 20.76 42.3211 19.96 43.3451 19.4C44.3691 18.84 45.5131 18.56 46.7771 18.56C48.0411 18.56 49.1851 18.84 50.2091 19.4C51.2331 19.96 52.0411 20.76 52.6331 21.8C53.2251 22.84 53.5211 24.032 53.5211 25.376C53.5211 26.72 53.2171 27.912 52.6091 28.952C52.0011 29.992 51.1691 30.8 50.1131 31.376C49.0731 31.936 47.9211 32.216 46.6571 32.216ZM46.6571 29.84C47.3611 29.84 48.0171 29.672 48.6251 29.336C49.2491 29 49.7531 28.496 50.1371 27.824C50.5211 27.152 50.7131 26.336 50.7131 25.376C50.7131 24.416 50.5291 23.608 50.1611 22.952C49.7931 22.28 49.3051 21.776 48.6971 21.44C48.0891 21.104 47.4331 20.936 46.7291 20.936C46.0251 20.936 45.3691 21.104 44.7611 21.44C44.1691 21.776 43.6971 22.28 43.3451 22.952C42.9931 23.608 42.8171 24.416 42.8171 25.376C42.8171 26.8 43.1771 27.904 43.8971 28.688C44.6331 29.456 45.5531 29.84 46.6571 29.84ZM61.4578 25.4L67.5538 32H63.8578L58.9618 26.312V32H56.2258V14.24H58.9618V24.56L63.7618 18.776H67.5538L61.4578 25.4ZM75.2508 32.216C74.0028 32.216 72.8748 31.936 71.8668 31.376C70.8588 30.8 70.0668 30 69.4908 28.976C68.9148 27.936 68.6268 26.736 68.6268 25.376C68.6268 24.032 68.9228 22.84 69.5148 21.8C70.1068 20.76 70.9148 19.96 71.9388 19.4C72.9628 18.84 74.1068 18.56 75.3708 18.56C76.6348 18.56 77.7788 18.84 78.8028 19.4C79.8268 19.96 80.6348 20.76 81.2268 21.8C81.8188 22.84 82.1148 24.032 82.1148 25.376C82.1148 26.72 81.8108 27.912 81.2028 28.952C80.5948 29.992 79.7628 30.8 78.7068 31.376C77.6668 31.936 76.5148 32.216 75.2508 32.216ZM75.2508 29.84C75.9548 29.84 76.6108 29.672 77.2188 29.336C77.8428 29 78.3468 28.496 78.7308 27.824C79.1148 27.152 79.3068 26.336 79.3068 25.376C79.3068 24.416 79.1228 23.608 78.7548 22.952C78.3868 22.28 77.8988 21.776 77.2908 21.44C76.6828 21.104 76.0268 20.936 75.3228 20.936C74.6188 20.936 73.9628 21.104 73.3548 21.44C72.7628 21.776 72.2908 22.28 71.9388 22.952C71.5868 23.608 71.4108 24.416 71.4108 25.376C71.4108 26.8 71.7708 27.904 72.4908 28.688C73.2268 29.456 74.1468 29.84 75.2508 29.84ZM26.7664 35.32V52H24.0304V40.576L18.9424 52H17.0464L11.9344 40.576V52H9.19844V35.32H12.1504L18.0064 48.4L23.8384 35.32H26.7664ZM36.0985 52.216C34.8505 52.216 33.7225 51.936 32.7145 51.376C31.7065 50.8 30.9145 50 30.3385 48.976C29.7625 47.936 29.4745 46.736 29.4745 45.376C29.4745 44.032 29.7705 42.84 30.3625 41.8C30.9545 40.76 31.7625 39.96 32.7865 39.4C33.8105 38.84 34.9545 38.56 36.2185 38.56C37.4825 38.56 38.6265 38.84 39.6505 39.4C40.6745 39.96 41.4825 40.76 42.0745 41.8C42.6665 42.84 42.9625 44.032 42.9625 45.376C42.9625 46.72 42.6585 47.912 42.0505 48.952C41.4425 49.992 40.6105 50.8 39.5545 51.376C38.5145 51.936 37.3625 52.216 36.0985 52.216ZM36.0985 49.84C36.8025 49.84 37.4585 49.672 38.0665 49.336C38.6905 49 39.1945 48.496 39.5785 47.824C39.9625 47.152 40.1545 46.336 40.1545 45.376C40.1545 44.416 39.9705 43.608 39.6025 42.952C39.2345 42.28 38.7465 41.776 38.1385 41.44C37.5305 41.104 36.8745 40.936 36.1705 40.936C35.4665 40.936 34.8105 41.104 34.2025 41.44C33.6105 41.776 33.1385 42.28 32.7865 42.952C32.4345 43.608 32.2585 44.416 32.2585 45.376C32.2585 46.8 32.6185 47.904 33.3385 48.688C34.0745 49.456 34.9945 49.84 36.0985 49.84ZM48.4032 40.744C48.8672 40.104 49.4992 39.584 50.2992 39.184C51.1152 38.768 52.0192 38.56 53.0112 38.56C54.1792 38.56 55.2352 38.84 56.1792 39.4C57.1232 39.96 57.8672 40.76 58.4112 41.8C58.9552 42.824 59.2272 44 59.2272 45.328C59.2272 46.656 58.9552 47.848 58.4112 48.904C57.8672 49.944 57.1152 50.76 56.1552 51.352C55.2112 51.928 54.1632 52.216 53.0112 52.216C51.9872 52.216 51.0752 52.016 50.2752 51.616C49.4912 51.216 48.8672 50.704 48.4032 50.08V52H45.6672V34.24H48.4032V40.744ZM56.4432 45.328C56.4432 44.416 56.2512 43.632 55.8672 42.976C55.4992 42.304 55.0032 41.8 54.3792 41.464C53.7712 41.112 53.1152 40.936 52.4112 40.936C51.7232 40.936 51.0672 41.112 50.4432 41.464C49.8352 41.816 49.3392 42.328 48.9552 43C48.5872 43.672 48.4032 44.464 48.4032 45.376C48.4032 46.288 48.5872 47.088 48.9552 47.776C49.3392 48.448 49.8352 48.96 50.4432 49.312C51.0672 49.664 51.7232 49.84 52.4112 49.84C53.1152 49.84 53.7712 49.664 54.3792 49.312C55.0032 48.944 55.4992 48.416 55.8672 47.728C56.2512 47.04 56.4432 46.24 56.4432 45.328ZM63.3248 37.024C62.8288 37.024 62.4128 36.856 62.0768 36.52C61.7408 36.184 61.5728 35.768 61.5728 35.272C61.5728 34.776 61.7408 34.36 62.0768 34.024C62.4128 33.688 62.8288 33.52 63.3248 33.52C63.8048 33.52 64.2128 33.688 64.5488 34.024C64.8848 34.36 65.0528 34.776 65.0528 35.272C65.0528 35.768 64.8848 36.184 64.5488 36.52C64.2128 36.856 63.8048 37.024 63.3248 37.024ZM64.6688 38.776V52H61.9328V38.776H64.6688ZM70.9969 34.24V52H68.2609V34.24H70.9969ZM86.7091 45.064C86.7091 45.56 86.6771 46.008 86.6131 46.408H76.5091C76.5891 47.464 76.9811 48.312 77.6851 48.952C78.3891 49.592 79.2531 49.912 80.2771 49.912C81.7491 49.912 82.7891 49.296 83.3971 48.064H86.3491C85.9491 49.28 85.2211 50.28 84.1651 51.064C83.1251 51.832 81.8291 52.216 80.2771 52.216C79.0131 52.216 77.8771 51.936 76.8691 51.376C75.8771 50.8 75.0931 50 74.5171 48.976C73.9571 47.936 73.6771 46.736 73.6771 45.376C73.6771 44.016 73.9491 42.824 74.4931 41.8C75.0531 40.76 75.8291 39.96 76.8211 39.4C77.8291 38.84 78.9811 38.56 80.2771 38.56C81.5251 38.56 82.6371 38.832 83.6131 39.376C84.5891 39.92 85.3491 40.688 85.8931 41.68C86.4371 42.656 86.7091 43.784 86.7091 45.064ZM83.8531 44.2C83.8371 43.192 83.4771 42.384 82.7731 41.776C82.0691 41.168 81.1971 40.864 80.1571 40.864C79.2131 40.864 78.4051 41.168 77.7331 41.776C77.0611 42.368 76.6611 43.176 76.5331 44.2H83.8531Z" fill="black"/>
<g clip-path="url(#clip0)">
<path d="M123.615 10.3272V10.3223C122.773 9.4764 121.63 9.00049 120.436 9H99.5586C97.0789 9.00808 95.0708 11.0162 95.0627 13.4959V51.9066C95.0632 53.0998 95.5391 54.2436 96.3851 55.0851C97.2253 55.9298 98.3672 56.4056 99.5586 56.4074H120.441C121.633 56.4056 122.775 55.9298 123.615 55.0851C124.46 54.2448 124.935 53.103 124.937 51.9115V13.5008C124.935 12.3093 124.46 11.1675 123.615 10.3272ZM110 53.3563C109.329 53.3563 108.785 52.8125 108.785 52.1417C108.785 51.4709 109.329 50.9272 110 50.9272C110.671 50.9272 111.215 51.4709 111.215 52.1417C111.215 52.8125 110.671 53.3563 110 53.3563ZM121.367 45.7309C121.367 47.3538 120.051 48.6694 118.429 48.6694H101.567C99.9437 48.6694 98.6281 47.3538 98.6281 45.7309V17.1053C98.6281 15.4824 99.9437 14.1668 101.567 14.1668H118.433C120.056 14.1668 121.372 15.4824 121.372 17.1053L121.367 45.7309Z" fill="black"/>
</g>
<defs>
<clipPath id="clip0">
<rect width="30" height="47.4074" fill="white" transform="translate(95 9)"/>
</clipPath>
</defs>
</svg>
