<svg width="208" height="100" viewBox="0 0 208 100" fill="none" xmlns="http://www.w3.org/2000/svg">
<path d="M29.6344 45.9793C27.9544 45.9793 26.4424 45.6913 25.0984 45.1153C23.7544 44.5153 22.6984 43.6753 21.9304 42.5953C21.1624 41.5153 20.7784 40.2553 20.7784 38.8153H25.1704C25.2664 39.8953 25.6864 40.7833 26.4304 41.4793C27.1984 42.1753 28.2664 42.5233 29.6344 42.5233C31.0504 42.5233 32.1544 42.1873 32.9464 41.5153C33.7384 40.8193 34.1344 39.9313 34.1344 38.8513C34.1344 38.0113 33.8824 37.3273 33.3784 36.7993C32.8984 36.2713 32.2864 35.8633 31.5424 35.5753C30.8224 35.2873 29.8144 34.9753 28.5184 34.6393C26.8864 34.2073 25.5544 33.7753 24.5224 33.3433C23.5144 32.8873 22.6504 32.1913 21.9304 31.2553C21.2104 30.3193 20.8504 29.0713 20.8504 27.5113C20.8504 26.0713 21.2104 24.8113 21.9304 23.7313C22.6504 22.6513 23.6584 21.8233 24.9544 21.2473C26.2504 20.6713 27.7504 20.3833 29.4544 20.3833C31.8784 20.3833 33.8584 20.9953 35.3944 22.2193C36.9544 23.4193 37.8184 25.0753 37.9864 27.1873H33.4504C33.3784 26.2753 32.9464 25.4953 32.1544 24.8473C31.3624 24.1993 30.3184 23.8753 29.0224 23.8753C27.8464 23.8753 26.8864 24.1753 26.1424 24.7753C25.3984 25.3753 25.0264 26.2393 25.0264 27.3673C25.0264 28.1353 25.2544 28.7713 25.7104 29.2753C26.1904 29.7553 26.7904 30.1393 27.5104 30.4273C28.2304 30.7153 29.2144 31.0273 30.4624 31.3633C32.1184 31.8193 33.4624 32.2753 34.4944 32.7313C35.5504 33.1873 36.4384 33.8953 37.1584 34.8553C37.9024 35.7913 38.2744 37.0513 38.2744 38.6353C38.2744 39.9073 37.9264 41.1073 37.2304 42.2353C36.5584 43.3633 35.5624 44.2753 34.2424 44.9713C32.9464 45.6433 31.4104 45.9793 29.6344 45.9793ZM45.205 23.2633C44.461 23.2633 43.837 23.0113 43.333 22.5073C42.829 22.0033 42.577 21.3793 42.577 20.6353C42.577 19.8913 42.829 19.2673 43.333 18.7633C43.837 18.2593 44.461 18.0073 45.205 18.0073C45.925 18.0073 46.537 18.2593 47.041 18.7633C47.545 19.2673 47.797 19.8913 47.797 20.6353C47.797 21.3793 47.545 22.0033 47.041 22.5073C46.537 23.0113 45.925 23.2633 45.205 23.2633ZM47.221 25.8913V45.7273H43.117V25.8913H47.221ZM56.7131 19.0873V45.7273H52.6091V19.0873H56.7131ZM70.7053 46.0513C68.8333 46.0513 67.1413 45.6313 65.6293 44.7913C64.1173 43.9273 62.9293 42.7273 62.0653 41.1913C61.2013 39.6313 60.7693 37.8313 60.7693 35.7913C60.7693 33.7753 61.2133 31.9873 62.1013 30.4273C62.9893 28.8673 64.2013 27.6673 65.7373 26.8273C67.2733 25.9873 68.9893 25.5673 70.8853 25.5673C72.7813 25.5673 74.4973 25.9873 76.0333 26.8273C77.5693 27.6673 78.7813 28.8673 79.6693 30.4273C80.5573 31.9873 81.0013 33.7753 81.0013 35.7913C81.0013 37.8073 80.5453 39.5953 79.6333 41.1553C78.7213 42.7153 77.4733 43.9273 75.8893 44.7913C74.3293 45.6313 72.6013 46.0513 70.7053 46.0513ZM70.7053 42.4873C71.7613 42.4873 72.7453 42.2353 73.6573 41.7313C74.5933 41.2273 75.3493 40.4713 75.9253 39.4633C76.5013 38.4553 76.7893 37.2313 76.7893 35.7913C76.7893 34.3513 76.5133 33.1393 75.9613 32.1553C75.4093 31.1473 74.6773 30.3913 73.7653 29.8873C72.8533 29.3833 71.8693 29.1313 70.8133 29.1313C69.7573 29.1313 68.7733 29.3833 67.8613 29.8873C66.9733 30.3913 66.2653 31.1473 65.7373 32.1553C65.2093 33.1393 64.9453 34.3513 64.9453 35.7913C64.9453 37.9273 65.4853 39.5833 66.5653 40.7593C67.6693 41.9113 69.0493 42.4873 70.7053 42.4873ZM92.9064 35.8273L102.05 45.7273H96.5064L89.1624 37.1953V45.7273H85.0584V19.0873H89.1624V34.5673L96.3624 25.8913H102.05L92.9064 35.8273ZM113.596 46.0513C111.724 46.0513 110.032 45.6313 108.52 44.7913C107.008 43.9273 105.82 42.7273 104.956 41.1913C104.092 39.6313 103.66 37.8313 103.66 35.7913C103.66 33.7753 104.104 31.9873 104.992 30.4273C105.88 28.8673 107.092 27.6673 108.628 26.8273C110.164 25.9873 111.88 25.5673 113.776 25.5673C115.672 25.5673 117.388 25.9873 118.924 26.8273C120.46 27.6673 121.672 28.8673 122.56 30.4273C123.448 31.9873 123.892 33.7753 123.892 35.7913C123.892 37.8073 123.436 39.5953 122.524 41.1553C121.612 42.7153 120.364 43.9273 118.78 44.7913C117.22 45.6313 115.492 46.0513 113.596 46.0513ZM113.596 42.4873C114.652 42.4873 115.636 42.2353 116.548 41.7313C117.484 41.2273 118.24 40.4713 118.816 39.4633C119.392 38.4553 119.68 37.2313 119.68 35.7913C119.68 34.3513 119.404 33.1393 118.852 32.1553C118.3 31.1473 117.568 30.3913 116.656 29.8873C115.744 29.3833 114.76 29.1313 113.704 29.1313C112.648 29.1313 111.664 29.3833 110.752 29.8873C109.864 30.3913 109.156 31.1473 108.628 32.1553C108.1 33.1393 107.836 34.3513 107.836 35.7913C107.836 37.9273 108.376 39.5833 109.456 40.7593C110.56 41.9113 111.94 42.4873 113.596 42.4873ZM40.8694 56.7073V81.7273H36.7654V64.5913L29.1334 81.7273H26.2894L18.6214 64.5913V81.7273H14.5174V56.7073H18.9454L27.7294 76.3273L36.4774 56.7073H40.8694ZM54.8674 82.0513C52.9954 82.0513 51.3034 81.6313 49.7914 80.7913C48.2794 79.9273 47.0914 78.7273 46.2274 77.1913C45.3634 75.6313 44.9314 73.8313 44.9314 71.7913C44.9314 69.7753 45.3754 67.9873 46.2634 66.4273C47.1514 64.8673 48.3634 63.6673 49.8994 62.8273C51.4354 61.9873 53.1514 61.5673 55.0474 61.5673C56.9434 61.5673 58.6594 61.9873 60.1954 62.8273C61.7314 63.6673 62.9434 64.8673 63.8314 66.4273C64.7194 67.9873 65.1634 69.7753 65.1634 71.7913C65.1634 73.8073 64.7074 75.5953 63.7954 77.1553C62.8834 78.7153 61.6354 79.9273 60.0514 80.7913C58.4914 81.6313 56.7634 82.0513 54.8674 82.0513ZM54.8674 78.4873C55.9234 78.4873 56.9074 78.2353 57.8194 77.7313C58.7554 77.2273 59.5114 76.4713 60.0874 75.4633C60.6634 74.4553 60.9514 73.2313 60.9514 71.7913C60.9514 70.3513 60.6754 69.1393 60.1234 68.1553C59.5714 67.1473 58.8394 66.3913 57.9274 65.8873C57.0154 65.3833 56.0314 65.1313 54.9754 65.1313C53.9194 65.1313 52.9354 65.3833 52.0234 65.8873C51.1354 66.3913 50.4274 67.1473 49.8994 68.1553C49.3714 69.1393 49.1074 70.3513 49.1074 71.7913C49.1074 73.9273 49.6474 75.5833 50.7274 76.7593C51.8314 77.9113 53.2114 78.4873 54.8674 78.4873ZM73.3245 64.8433C74.0205 63.8833 74.9685 63.1033 76.1685 62.5033C77.3925 61.8793 78.7485 61.5673 80.2365 61.5673C81.9885 61.5673 83.5725 61.9873 84.9885 62.8273C86.4045 63.6673 87.5205 64.8673 88.3365 66.4273C89.1525 67.9633 89.5605 69.7273 89.5605 71.7193C89.5605 73.7113 89.1525 75.4993 88.3365 77.0833C87.5205 78.6433 86.3925 79.8673 84.9525 80.7553C83.5365 81.6193 81.9645 82.0513 80.2365 82.0513C78.7005 82.0513 77.3325 81.7513 76.1325 81.1513C74.9565 80.5513 74.0205 79.7833 73.3245 78.8473V81.7273H69.2205V55.0873H73.3245V64.8433ZM85.3845 71.7193C85.3845 70.3513 85.0965 69.1753 84.5205 68.1913C83.9685 67.1833 83.2245 66.4273 82.2885 65.9233C81.3765 65.3953 80.3925 65.1313 79.3365 65.1313C78.3045 65.1313 77.3205 65.3953 76.3845 65.9233C75.4725 66.4513 74.7285 67.2193 74.1525 68.2273C73.6005 69.2353 73.3245 70.4233 73.3245 71.7913C73.3245 73.1593 73.6005 74.3593 74.1525 75.3913C74.7285 76.3993 75.4725 77.1673 76.3845 77.6953C77.3205 78.2233 78.3045 78.4873 79.3365 78.4873C80.3925 78.4873 81.3765 78.2233 82.2885 77.6953C83.2245 77.1433 83.9685 76.3513 84.5205 75.3193C85.0965 74.2873 85.3845 73.0873 85.3845 71.7193ZM95.7069 59.2633C94.9629 59.2633 94.3389 59.0113 93.8349 58.5073C93.3309 58.0033 93.0789 57.3793 93.0789 56.6353C93.0789 55.8913 93.3309 55.2673 93.8349 54.7633C94.3389 54.2593 94.9629 54.0073 95.7069 54.0073C96.4269 54.0073 97.0389 54.2593 97.5429 54.7633C98.0469 55.2673 98.2989 55.8913 98.2989 56.6353C98.2989 57.3793 98.0469 58.0033 97.5429 58.5073C97.0389 59.0113 96.4269 59.2633 95.7069 59.2633ZM97.7229 61.8913V81.7273H93.6189V61.8913H97.7229ZM107.215 55.0873V81.7273H103.111V55.0873H107.215ZM130.783 71.3233C130.783 72.0673 130.735 72.7393 130.639 73.3393H115.483C115.603 74.9233 116.191 76.1953 117.247 77.1553C118.303 78.1153 119.599 78.5953 121.135 78.5953C123.343 78.5953 124.903 77.6713 125.815 75.8233H130.243C129.643 77.6473 128.551 79.1473 126.967 80.3233C125.407 81.4753 123.463 82.0513 121.135 82.0513C119.239 82.0513 117.535 81.6313 116.023 80.7913C114.535 79.9273 113.359 78.7273 112.495 77.1913C111.655 75.6313 111.235 73.8313 111.235 71.7913C111.235 69.7513 111.643 67.9633 112.459 66.4273C113.299 64.8673 114.463 63.6673 115.951 62.8273C117.463 61.9873 119.191 61.5673 121.135 61.5673C123.007 61.5673 124.675 61.9753 126.139 62.7913C127.603 63.6073 128.743 64.7593 129.559 66.2473C130.375 67.7113 130.783 69.4033 130.783 71.3233ZM126.499 70.0273C126.475 68.5153 125.935 67.3033 124.879 66.3913C123.823 65.4793 122.515 65.0233 120.955 65.0233C119.539 65.0233 118.327 65.4793 117.319 66.3913C116.311 67.2793 115.711 68.4913 115.519 70.0273H126.499Z" fill="white"/>
<g clip-path="url(#clip0)">
<path d="M187.295 15.6473V15.6399C186.02 14.3582 184.287 13.6371 182.48 13.6364H150.846C147.089 13.6486 144.047 16.6911 144.035 20.4483V78.6464C144.035 80.4542 144.756 82.1872 146.038 83.4623C147.311 84.7421 149.041 85.463 150.846 85.4658H182.487C184.292 85.463 186.022 84.7421 187.295 83.4623C188.575 82.1891 189.296 80.459 189.299 78.6538V20.4557C189.296 18.6505 188.575 16.9204 187.295 15.6473ZM166.667 80.8429C165.65 80.8429 164.826 80.019 164.826 79.0026C164.826 77.9862 165.65 77.1623 166.667 77.1623C167.683 77.1623 168.507 77.9862 168.507 79.0026C168.507 80.019 167.683 80.8429 166.667 80.8429ZM183.889 69.2893C183.889 71.7482 181.896 73.7415 179.437 73.7415H153.889C151.43 73.7415 149.437 71.7482 149.437 69.2893V25.9171C149.437 23.4582 151.43 21.4649 153.889 21.4649H179.445C181.904 21.4649 183.897 23.4582 183.897 25.9171L183.889 69.2893Z" fill="white"/>
</g>
<defs>
<clipPath id="clip0">
<rect width="45.4545" height="71.8294" fill="white" transform="translate(143.939 13.6364)"/>
</clipPath>
</defs>
</svg>
